<svg width="48" height="48" viewBox="0 0 48 48" fill="none" xmlns="http://www.w3.org/2000/svg">
<path d="M28.3203 31.8564L32.6142 39.2937C33.4426 40.7286 32.951 42.5634 31.5161 43.3918C30.0812 44.2202 28.2464 43.7286 27.418 42.2937L22.1109 33.1016M38.9086 9.66022L39.6407 6.92817M42.9086 16.5884L45.6407 17.3205M16.1962 34.3205L37.4336 29.4576C40.057 28.8569 41.3505 25.8891 40.0049 23.5585L31.4208 8.69026C30.0751 6.35959 26.8582 5.99599 25.0264 7.96751L10.1962 23.9282L16.1962 34.3205ZM10.6962 24.7942L15.6962 33.4544C16.5247 34.8893 16.033 36.7241 14.5982 37.5525C13.1633 38.3809 11.3285 37.8893 10.5001 36.4544L5.50008 27.7942C4.67165 26.3593 5.16328 24.5245 6.59816 23.6961C8.03303 22.8677 9.86781 23.3593 10.6962 24.7942Z" stroke="#28303F" stroke-width="3" stroke-linecap="round" stroke-linejoin="round"/>
</svg>
