<svg width="48" height="48" viewBox="0 0 48 48" fill="none" xmlns="http://www.w3.org/2000/svg">
<path d="M4 8C4 5.79086 5.79086 4 8 4H16C18.2091 4 20 5.79086 20 8V16C20 18.2091 18.2091 20 16 20H8C5.79086 20 4 18.2091 4 16V8Z" stroke="#28303F" stroke-width="3"/>
<path d="M44 12C44 16.4183 40.4183 20 36 20C31.5817 20 28 16.4183 28 12C28 7.58172 31.5817 4 36 4C40.4183 4 44 7.58172 44 12Z" stroke="#28303F" stroke-width="3"/>
<path d="M20 36C20 40.4183 16.4183 44 12 44C7.58172 44 4 40.4183 4 36C4 31.5817 7.58172 28 12 28C16.4183 28 20 31.5817 20 36Z" stroke="#28303F" stroke-width="3"/>
<path d="M28 32C28 29.7909 29.7909 28 32 28H40C42.2091 28 44 29.7909 44 32V40C44 42.2091 42.2091 44 40 44H32C29.7909 44 28 42.2091 28 40V32Z" stroke="#28303F" stroke-width="3"/>
</svg>
