<svg width="48" height="48" viewBox="0 0 48 48" fill="none" xmlns="http://www.w3.org/2000/svg">
<path fill-rule="evenodd" clip-rule="evenodd" d="M20.0255 43.6051C10.8839 41.7619 4 33.6849 4 24C4 12.9543 12.9543 4 24 4C35.0457 4 44 12.9543 44 24C44 29.539 41.7483 34.552 38.1104 38.1738C36.0062 40.2687 32.8889 38.4358 32.8889 35.4665V32.8889C32.8889 30.4343 30.899 28.4444 28.4444 28.4444C25.9898 28.4444 24 30.4343 24 32.8889V40C24 42.2091 22.1911 44.0417 20.0255 43.6051ZM19 12C20.6569 12 22 13.3431 22 15C22 16.6569 20.6569 18 19 18C17.3431 18 16 16.6569 16 15C16 13.3431 17.3431 12 19 12ZM37 20C37 18.3431 35.6569 17 34 17C32.3431 17 31 18.3431 31 20C31 21.6569 32.3431 23 34 23C35.6569 23 37 21.6569 37 20ZM16 28C17.6569 28 19 29.3431 19 31C19 32.6569 17.6569 34 16 34C14.3431 34 13 32.6569 13 31C13 29.3431 14.3431 28 16 28Z" fill="#28303F"/>
</svg>
