<svg width="48" height="48" viewBox="0 0 48 48" fill="none" xmlns="http://www.w3.org/2000/svg">
<path fill-rule="evenodd" clip-rule="evenodd" d="M8.35247 8.35247C8.88961 7.81533 9.77642 7.46409 11.1644 7.50282C12.5567 7.54167 14.3074 7.97576 16.3204 8.83846C17.9278 9.52737 19.6558 10.4695 21.4397 11.641C19.6955 13.014 17.9522 14.56 16.2562 16.2561C14.56 17.9522 13.0141 19.6956 11.6409 21.4398C10.4695 19.6559 9.52736 17.9279 8.83845 16.3204C7.97576 14.3074 7.54167 12.5567 7.50282 11.1644C7.46409 9.77643 7.81533 8.88962 8.35247 8.35247ZM17.5021 6.08103C19.5655 6.96532 21.7645 8.20419 24 9.74891C26.2354 8.2042 28.4345 6.96534 30.4978 6.08105C32.7178 5.1296 34.8541 4.55696 36.7518 4.50401C38.654 4.45093 40.4604 4.92279 41.7688 6.23118C43.0771 7.53957 43.549 9.34598 43.4959 11.2481C43.443 13.1459 42.8703 15.2821 41.9189 17.5022C41.0346 19.5655 39.7957 21.7646 38.251 24.0001C39.7957 26.2354 41.0345 28.4344 41.9187 30.4977C42.8702 32.7178 43.4428 34.854 43.4957 36.7518C43.5488 38.6539 43.077 40.4603 41.7686 41.7687C40.4602 43.0771 38.6538 43.549 36.7517 43.4959C34.8539 43.4429 32.7176 42.8703 30.4976 41.9189C28.4343 41.0346 26.2353 39.7958 24 38.2511C21.7646 39.7958 19.5656 41.0346 17.5023 41.9189C15.2823 42.8703 13.146 43.443 11.2482 43.4959C9.34612 43.549 7.53971 43.0771 6.23133 41.7687C4.92295 40.4604 4.45109 38.6539 4.50417 36.7518C4.55712 34.854 5.12976 32.7178 6.0812 30.4977C6.96546 28.4345 8.20427 26.2354 9.74891 24.0001C8.20419 21.7646 6.96532 19.5655 6.08102 17.5022C5.12958 15.2821 4.55694 13.1459 4.50399 11.2481C4.45091 9.34596 4.92277 7.53954 6.23115 6.23116C7.53953 4.92277 9.34594 4.45091 11.2481 4.50399C13.1458 4.55694 15.2821 5.12958 17.5021 6.08103ZM18.3775 18.3774C20.2315 16.5233 22.1291 14.8734 24 13.4534C25.8709 14.8734 27.7684 16.5233 29.6224 18.3774C31.4765 20.2315 33.1265 22.1291 34.5465 24.0001C33.1265 25.871 31.4766 27.7685 29.6226 29.6226C27.7685 31.4767 25.8709 33.1266 24 34.5466C22.129 33.1266 20.2314 31.4767 18.3773 29.6225C16.5233 27.7685 14.8734 25.871 13.4534 24.0001C14.8734 22.1291 16.5234 20.2315 18.3775 18.3774ZM31.7437 16.256C33.4399 17.9522 34.9859 19.6956 36.359 21.4398C37.5305 19.6559 38.4725 17.9279 39.1615 16.3204C40.0242 14.3075 40.4582 12.5568 40.4971 11.1644C40.5358 9.77645 40.1846 8.88964 39.6474 8.3525C39.1103 7.81535 38.2235 7.46411 36.8355 7.50284C35.4432 7.54169 33.6925 7.97578 31.6796 8.83848C30.0721 9.52739 28.3441 10.4695 26.5602 11.641C28.3044 13.014 30.0477 14.56 31.7437 16.256ZM31.7439 31.7439C33.44 30.0478 34.9859 28.3045 36.359 26.5604C37.5304 28.3442 38.4724 30.0721 39.1613 31.6795C40.024 33.6924 40.4581 35.4431 40.4969 36.8355C40.5356 38.2234 40.1844 39.1103 39.6473 39.6474C39.1101 40.1846 38.2233 40.5358 36.8353 40.4971C35.443 40.4582 33.6923 40.0241 31.6794 39.1614C30.072 38.4725 28.344 37.5305 26.5602 36.3591C28.3045 34.986 30.0478 33.44 31.7439 31.7439ZM16.256 31.7439C17.9521 33.44 19.6955 34.986 21.4397 36.3591C19.6559 37.5305 17.9279 38.4726 16.3205 39.1614C14.3076 40.0241 12.5569 40.4582 11.1646 40.4971C9.7766 40.5358 8.88979 40.1846 8.35266 39.6474C7.81551 39.1103 7.46427 38.2235 7.503 36.8355C7.54185 35.4432 7.97594 33.6925 8.83864 31.6795C9.52751 30.0721 10.4696 28.3442 11.641 26.5604C13.014 28.3045 14.5599 30.0478 16.256 31.7439ZM24 28C26.2091 28 28 26.2091 28 24C28 21.7909 26.2091 20 24 20C21.7909 20 20 21.7909 20 24C20 26.2091 21.7909 28 24 28Z" fill="#28303F"/>
</svg>
