<svg width="48" height="48" viewBox="0 0 48 48" fill="none" xmlns="http://www.w3.org/2000/svg">
<path fill-rule="evenodd" clip-rule="evenodd" d="M5.18343 18.0902L22.5207 10.3183C23.4675 9.8939 24.5325 9.8939 25.4793 10.3183L42.8166 18.0902C43.6055 18.4439 44 19.2219 44 20V32C44 32.8284 43.3284 33.5 42.5 33.5C41.6716 33.5 41 32.8284 41 32V22.7241L25.4793 29.6817C24.5325 30.1061 23.4675 30.1061 22.5207 29.6817L5.18343 21.9098C3.60552 21.2025 3.60552 18.7975 5.18343 18.0902ZM12 32V28.2532L21.2935 32.4192C23.021 33.1936 24.979 33.1936 26.7065 32.4192L36 28.2532V32C36 35.3137 33.3137 38 30 38H18C14.6863 38 12 35.3137 12 32Z" fill="#28303F"/>
</svg>
