<svg width="48" height="48" viewBox="0 0 48 48" fill="none" xmlns="http://www.w3.org/2000/svg">
<path d="M26 4V12C26 16.4183 29.5817 20 34 20L42 20M6 12L6 36C6 40.4183 9.58172 44 14 44H34C38.4183 44 42 40.4183 42 36V23.3137C42 21.192 41.1571 19.1571 39.6569 17.6569L28.3431 6.34314C26.8429 4.84285 24.808 4 22.6863 4L14 4C9.58172 4 6 7.58172 6 12Z" stroke="#28303F" stroke-width="3" stroke-linejoin="round"/>
<path d="M12.873 36V27.4102H15.6562C16.7109 27.4102 17.3984 27.4531 17.7188 27.5391C18.2109 27.668 18.623 27.9492 18.9551 28.3828C19.2871 28.8125 19.4531 29.3691 19.4531 30.0527C19.4531 30.5801 19.3574 31.0234 19.166 31.3828C18.9746 31.7422 18.7305 32.0254 18.4336 32.2324C18.1406 32.4355 17.8418 32.5703 17.5371 32.6367C17.123 32.7188 16.5234 32.7598 15.7383 32.7598H14.6074V36H12.873ZM14.6074 28.8633V31.3008H15.5566C16.2402 31.3008 16.6973 31.2559 16.9277 31.166C17.1582 31.0762 17.3379 30.9355 17.4668 30.7441C17.5996 30.5527 17.666 30.3301 17.666 30.0762C17.666 29.7637 17.5742 29.5059 17.3906 29.3027C17.207 29.0996 16.9746 28.9727 16.6934 28.9219C16.4863 28.8828 16.0703 28.8633 15.4453 28.8633H14.6074Z" fill="#28303F"/>
<path d="M20.8711 27.4102H24.041C24.7559 27.4102 25.3008 27.4648 25.6758 27.5742C26.1797 27.7227 26.6113 27.9863 26.9707 28.3652C27.3301 28.7441 27.6035 29.209 27.791 29.7598C27.9785 30.3066 28.0723 30.9824 28.0723 31.7871C28.0723 32.4941 27.9844 33.1035 27.8086 33.6152C27.5938 34.2402 27.2871 34.7461 26.8887 35.1328C26.5879 35.4258 26.1816 35.6543 25.6699 35.8184C25.2871 35.9395 24.7754 36 24.1348 36H20.8711V27.4102ZM22.6055 28.8633V34.5527H23.9004C24.3848 34.5527 24.7344 34.5254 24.9492 34.4707C25.2305 34.4004 25.4629 34.2812 25.6465 34.1133C25.834 33.9453 25.9863 33.6699 26.1035 33.2871C26.2207 32.9004 26.2793 32.375 26.2793 31.7109C26.2793 31.0469 26.2207 30.5371 26.1035 30.1816C25.9863 29.8262 25.8223 29.5488 25.6113 29.3496C25.4004 29.1504 25.1328 29.0156 24.8086 28.9453C24.5664 28.8906 24.0918 28.8633 23.3848 28.8633H22.6055Z" fill="#28303F"/>
<path d="M29.5605 36V27.4102H35.4492V28.8633H31.2949V30.8965H34.8809V32.3496H31.2949V36H29.5605Z" fill="#28303F"/>
</svg>
