<svg width="48" height="48" viewBox="0 0 48 48" fill="none" xmlns="http://www.w3.org/2000/svg">
<path d="M18 30L21.1716 33.1716C22.7337 34.7337 25.2663 34.7337 26.8284 33.1716L30 30M24 34V24M40 14V16H7.99999V10C7.99999 6.68629 10.6863 4 14 4H19.1383C20.4744 4 21.7723 4.44596 22.8262 5.2672L24.7071 6.7328C25.761 7.55404 27.0589 8 28.395 8H34C37.3137 8 40 10.6863 40 14ZM6.94794 16H41.052C43.5986 16 45.4968 18.3481 44.9632 20.8381L41.3551 37.6762C40.5647 41.3648 37.305 44 33.5327 44H14.4673C10.695 44 7.4353 41.3648 6.6449 37.6762L3.03673 20.8381C2.50315 18.3481 4.40136 16 6.94794 16Z" stroke="#28303F" stroke-width="3" stroke-linecap="round" stroke-linejoin="round"/>
</svg>
