<svg width="48" height="48" viewBox="0 0 48 48" fill="none" xmlns="http://www.w3.org/2000/svg">
<path fill-rule="evenodd" clip-rule="evenodd" d="M4 12C4 7.58172 7.58172 4 12 4H36C40.4183 4 44 7.58172 44 12V28.5H4V12ZM12 38C8.09442 38 4.84251 35.2013 4.1404 31.5H43.8596C43.1575 35.2013 39.9056 38 36 38H25.5V42.5H30C30.8284 42.5 31.5 43.1716 31.5 44C31.5 44.8284 30.8284 45.5 30 45.5H18C17.1716 45.5 16.5 44.8284 16.5 44C16.5 43.1716 17.1716 42.5 18 42.5H22.5V38H12ZM14 12.5C13.1716 12.5 12.5 13.1716 12.5 14C12.5 14.8284 13.1716 15.5 14 15.5H24C24.8284 15.5 25.5 14.8284 25.5 14C25.5 13.1716 24.8284 12.5 24 12.5H14ZM12.5 22C12.5 21.1716 13.1716 20.5 14 20.5H34C34.8284 20.5 35.5 21.1716 35.5 22C35.5 22.8284 34.8284 23.5 34 23.5H14C13.1716 23.5 12.5 22.8284 12.5 22Z" fill="#28303F"/>
</svg>
