<svg width="48" height="48" viewBox="0 0 48 48" fill="none" xmlns="http://www.w3.org/2000/svg">
<path fill-rule="evenodd" clip-rule="evenodd" d="M34.2663 4.4255C32.7962 5.30143 32.2926 7.24142 33.1413 8.75858L38.2638 17.9154C39.1125 19.4326 40.9922 19.9524 42.4623 19.0765C43.9323 18.2006 44.436 16.2606 43.5873 14.7434L38.4648 5.58655C37.616 4.06939 35.7363 3.54957 34.2663 4.4255ZM30.1166 9.34033L14.8846 18.4164C12.9246 19.5843 12.253 22.171 13.3847 24.1938L13.6769 24.7162C13.6649 24.7229 13.653 24.7297 13.6412 24.7368L6.093 29.2344L5.30887 27.8327C4.90441 27.1097 3.99044 26.8515 3.26746 27.256C2.54447 27.6604 2.28625 28.5744 2.6907 29.2974L5.7642 34.7915C6.16865 35.5145 7.08262 35.7727 7.80561 35.3682C8.5286 34.9638 8.78682 34.0498 8.38237 33.3268L7.5582 31.8536L15.1418 27.3348L15.4337 27.8566C16.5653 29.8795 19.0716 30.5726 21.0317 29.4047L23.7722 27.7717L15.7998 43.3157C15.4217 44.0528 15.7128 44.9569 16.4499 45.3349C17.187 45.713 18.0911 45.4219 18.4691 44.6848L27.3795 27.3122L36.2898 44.6848C36.6679 45.4219 37.5719 45.713 38.309 45.3349C39.0462 44.9569 39.3372 44.0528 38.9592 43.3157L29.298 24.4791L36.2874 20.3144C36.0494 20.0281 35.8342 19.7161 35.6462 19.38L30.5237 10.2232C30.3632 9.93628 30.2277 9.64108 30.1166 9.34033Z" fill="#28303F"/>
</svg>
