<svg width="48" height="48" viewBox="0 0 48 48" fill="none" xmlns="http://www.w3.org/2000/svg">
<path fill-rule="evenodd" clip-rule="evenodd" d="M40.4758 21.029V23.0024C40.4758 25.4549 38.4877 27.4431 36.0351 27.4431C33.5826 27.4431 31.5944 25.4549 31.5944 23.0024V21.029L34.6825 22.4015C35.5436 22.7842 36.5266 22.7842 37.3878 22.4015L40.4758 21.029ZM28.819 19.7955V24.6678C28.819 25.1277 28.4462 25.5005 27.9864 25.5005C27.5265 25.5005 27.1537 25.1277 27.1537 24.6678V19.0543C27.1638 19.0595 27.1742 19.0645 27.1849 19.0692L28.819 19.7955Z" fill="#28303F"/>
<path d="M44.8854 18.8743L37.3878 15.5421C36.5267 15.1593 35.5437 15.1593 34.6825 15.5421L27.1849 18.8743C26.7454 19.0697 26.7454 19.6935 27.1849 19.8888L34.6825 23.2211C35.5437 23.6038 36.5267 23.6038 37.3878 23.2211L44.8854 19.8888C45.325 19.6935 45.325 19.0697 44.8854 18.8743Z" fill="#28303F"/>
<path fill-rule="evenodd" clip-rule="evenodd" d="M32.6335 37.1442H42.6962C43.9224 37.1442 44.9165 36.1501 44.9165 34.9238C44.9165 32.5179 42.744 30.4488 39.6299 29.533C39.2582 29.4237 38.8604 29.5411 38.588 29.8166L36.8245 31.5998C36.3899 32.0392 35.6803 32.0392 35.2457 31.5998L33.4822 29.8166C33.2098 29.5411 32.812 29.4237 32.4403 29.533C31.3494 29.8538 30.374 30.3162 29.5671 30.885C31.4894 32.6441 32.6256 34.8062 32.6335 37.1442Z" fill="#28303F"/>
<path fill-rule="evenodd" clip-rule="evenodd" d="M23.5636 16.4141V19.425C23.5636 23.1664 20.5306 26.1994 16.7892 26.1994C13.0477 26.1994 10.0147 23.1664 10.0147 19.425V16.4141L14.7256 18.5079C16.0394 19.0917 17.539 19.0917 18.8527 18.5079L23.5636 16.4141ZM5.78069 14.5323V21.9654C5.78069 22.6669 5.212 23.2356 4.51048 23.2356C3.80897 23.2356 3.24028 22.6669 3.24028 21.9654V13.4016C3.25571 13.4096 3.27154 13.4172 3.28776 13.4244L5.78069 14.5323Z" fill="#28303F"/>
<path d="M30.2906 11.8768L18.8527 6.79326C17.539 6.20938 16.0394 6.20938 14.7257 6.79326L3.28778 11.8768C2.61727 12.1748 2.61727 13.1264 3.28778 13.4244L14.7257 18.5079C16.0394 19.0918 17.539 19.0918 18.8527 18.5079L30.2906 13.4244C30.9611 13.1264 30.9611 12.1748 30.2906 11.8768Z" fill="#28303F"/>
<path d="M12.8947 28.5699L15.5851 31.2903C16.2479 31.9606 17.3306 31.9606 17.9935 31.2903L20.6838 28.5699C21.0994 28.1496 21.7061 27.9705 22.2732 28.1372C27.024 29.5343 30.3381 32.6909 30.3381 36.3612C30.3381 38.2319 28.8216 39.7484 26.9509 39.7484H6.62759C4.75688 39.7484 3.24037 38.2319 3.24037 36.3612C3.24037 32.6909 6.55453 29.5343 11.3053 28.1372C11.8724 27.9705 12.4791 28.1496 12.8947 28.5699Z" fill="#28303F"/>
</svg>
