<svg width="48" height="48" viewBox="0 0 48 48" fill="none" xmlns="http://www.w3.org/2000/svg">
<path d="M42 20V15C42 10.5817 38.4183 7 34 7H14C9.58172 7 6 10.5817 6 15V36C6 40.4183 9.58172 44 14 44H18M16 4V10M32 18H16M28 26H16M20 34H16M32 4V10M24 44L30.1215 42.2549C30.4497 42.1613 30.7486 41.9855 30.9899 41.7442L41.0195 31.7146C42.3268 30.4073 42.3268 28.2878 41.0195 26.9805C39.7122 25.6732 37.5927 25.6732 36.2854 26.9805L26.2558 37.0101C26.0145 37.2514 25.8387 37.5503 25.7451 37.8785L24 44Z" stroke="#28303F" stroke-width="3" stroke-linecap="round"/>
</svg>
