<svg width="48" height="48" viewBox="0 0 48 48" fill="none" xmlns="http://www.w3.org/2000/svg">
<path d="M40 10V21" stroke="#28303F" stroke-width="3" stroke-linecap="round"/>
<path d="M33.5 14V12.5H30.5V14H33.5ZM17.5 14V12.5H14.5V14H17.5ZM24 4L24.5267 2.59551C24.1871 2.46816 23.8129 2.46816 23.4733 2.59551L24 4ZM8 10L7.47331 8.59551C6.88786 8.81505 6.5 9.37473 6.5 10C6.5 10.6253 6.88786 11.1849 7.47331 11.4045L8 10ZM24 16L23.4733 17.4045C23.8129 17.5318 24.1871 17.5318 24.5267 17.4045L24 16ZM40 10L40.5267 11.4045C41.1121 11.1849 41.5 10.6253 41.5 10C41.5 9.37473 41.1121 8.81505 40.5267 8.59551L40 10ZM25.4221 34.0117L24.3555 32.957L24.3555 32.957L25.4221 34.0117ZM28.5991 30.7992L29.6656 31.8539L29.6656 31.8539L28.5991 30.7992ZM30.476 30.2883L30.8992 28.8492L30.8992 28.8492L30.476 30.2883ZM19.4009 30.7992L20.4674 29.7444L20.4674 29.7444L19.4009 30.7992ZM22.5779 34.0117L23.6445 32.957L23.6445 32.957L22.5779 34.0117ZM17.524 30.2883L17.1008 28.8492L17.1008 28.8492L17.524 30.2883ZM38.5 44C38.5 44.8284 39.1716 45.5 40 45.5C40.8284 45.5 41.5 44.8284 41.5 44H38.5ZM6.5 44C6.5 44.8284 7.17157 45.5 8 45.5C8.82843 45.5 9.5 44.8284 9.5 44H6.5ZM30.5 14V18H33.5V14H30.5ZM17.5 18V14H14.5V18H17.5ZM24 24.5C20.4101 24.5 17.5 21.5899 17.5 18H14.5C14.5 23.2467 18.7533 27.5 24 27.5V24.5ZM30.5 18C30.5 21.5899 27.5899 24.5 24 24.5V27.5C29.2467 27.5 33.5 23.2467 33.5 18H30.5ZM23.4733 2.59551L7.47331 8.59551L8.52669 11.4045L24.5267 5.40449L23.4733 2.59551ZM24.5267 17.4045L40.5267 11.4045L39.4733 8.59551L23.4733 14.5955L24.5267 17.4045ZM23.4733 5.40449L39.4733 11.4045L40.5267 8.59551L24.5267 2.59551L23.4733 5.40449ZM24.5267 14.5955L8.52669 8.59551L7.47331 11.4045L23.4733 17.4045L24.5267 14.5955ZM26.4886 35.0665L29.6656 31.8539L27.5326 29.7444L24.3555 32.957L26.4886 35.0665ZM30.0528 31.7273C35.3987 33.2994 38.5 36.653 38.5 40H41.5C41.5 34.6785 36.7738 30.5767 30.8992 28.8492L30.0528 31.7273ZM18.3344 31.8539L21.5114 35.0665L23.6445 32.957L20.4674 29.7444L18.3344 31.8539ZM9.5 40C9.5 36.653 12.6013 33.2994 17.9472 31.7273L17.1008 28.8492C11.2262 30.5767 6.5 34.6785 6.5 40H9.5ZM38.5 40V44H41.5V40H38.5ZM6.5 40V44H9.5V40H6.5ZM20.4674 29.7444C19.6205 28.8881 18.3421 28.4842 17.1008 28.8492L17.9472 31.7273C18.0451 31.6985 18.1997 31.7177 18.3344 31.8539L20.4674 29.7444ZM29.6656 31.8539C29.8003 31.7177 29.9549 31.6985 30.0528 31.7273L30.8992 28.8492C29.6579 28.4842 28.3795 28.8881 27.5326 29.7444L29.6656 31.8539ZM24.3555 32.957C24.1598 33.1549 23.8402 33.1549 23.6445 32.957L21.5114 35.0665C22.8813 36.4517 25.1187 36.4517 26.4886 35.0665L24.3555 32.957Z" fill="#28303F"/>
</svg>
